<mxfile host="app.diagrams.net" modified="2023-01-26T19:34:56.645Z" agent="5.0 (X11; Linux x86_64) AppleWebKit/537.36 (KHTML, like Gecko) Chrome/108.0.0.0 Safari/537.36" version="20.8.5" etag="mNQBmVQFfJTcm3msBLvy" type="github">
  <diagram id="QGvk3yh6qzKKtQ3O9pUi" name="Page-1">
    <mxGraphModel dx="2202" dy="1327" grid="0" gridSize="10" guides="1" tooltips="1" connect="1" arrows="1" fold="1" page="0" pageScale="1" pageWidth="827" pageHeight="1169" math="0" shadow="0">
      <root>
        <mxCell id="0" />
        <mxCell id="1" parent="0" />
        <mxCell id="RWuzewwSkAC1oUChftIm-1" value="Binary To Decimal Subroutine" style="rounded=0;whiteSpace=wrap;html=1;fontSize=16;" vertex="1" parent="1">
          <mxGeometry x="121" y="-178" width="120" height="60" as="geometry" />
        </mxCell>
        <mxCell id="RWuzewwSkAC1oUChftIm-2" value="" style="edgeStyle=none;curved=1;rounded=0;orthogonalLoop=1;jettySize=auto;html=1;fontSize=12;startSize=8;endSize=8;entryX=0.5;entryY=0;entryDx=0;entryDy=0;" edge="1" parent="1" source="RWuzewwSkAC1oUChftIm-3" target="RWuzewwSkAC1oUChftIm-5">
          <mxGeometry relative="1" as="geometry">
            <mxPoint x="176" y="100" as="targetPoint" />
          </mxGeometry>
        </mxCell>
        <mxCell id="RWuzewwSkAC1oUChftIm-3" value="Begin" style="rounded=1;whiteSpace=wrap;html=1;fontSize=16;arcSize=50;" vertex="1" parent="1">
          <mxGeometry x="116" y="-80" width="120" height="60" as="geometry" />
        </mxCell>
        <mxCell id="RWuzewwSkAC1oUChftIm-4" value="" style="edgeStyle=none;curved=1;rounded=0;orthogonalLoop=1;jettySize=auto;html=1;fontSize=12;startSize=8;endSize=8;" edge="1" parent="1" source="RWuzewwSkAC1oUChftIm-5" target="RWuzewwSkAC1oUChftIm-14">
          <mxGeometry relative="1" as="geometry" />
        </mxCell>
        <mxCell id="RWuzewwSkAC1oUChftIm-5" value="Obtain integer as String and set it to: binaryNumber" style="shape=parallelogram;perimeter=parallelogramPerimeter;whiteSpace=wrap;html=1;fixedSize=1;fontSize=16;spacing=12;" vertex="1" parent="1">
          <mxGeometry x="100" y="54" width="148" height="111" as="geometry" />
        </mxCell>
        <mxCell id="RWuzewwSkAC1oUChftIm-6" value="true" style="edgeStyle=none;curved=1;rounded=0;orthogonalLoop=1;jettySize=auto;html=1;fontSize=12;startSize=8;endSize=8;" edge="1" parent="1" source="RWuzewwSkAC1oUChftIm-7" target="RWuzewwSkAC1oUChftIm-18">
          <mxGeometry relative="1" as="geometry" />
        </mxCell>
        <mxCell id="RWuzewwSkAC1oUChftIm-7" value="i &amp;gt;= 0" style="whiteSpace=wrap;html=1;fontSize=16;spacing=12;" vertex="1" parent="1">
          <mxGeometry x="114" y="402" width="134" height="70" as="geometry" />
        </mxCell>
        <mxCell id="RWuzewwSkAC1oUChftIm-8" value="" style="endArrow=classic;html=1;rounded=0;fontSize=12;startSize=8;endSize=8;curved=1;exitX=1;exitY=0.5;exitDx=0;exitDy=0;" edge="1" parent="1" source="RWuzewwSkAC1oUChftIm-7">
          <mxGeometry width="50" height="50" relative="1" as="geometry">
            <mxPoint x="148" y="294" as="sourcePoint" />
            <mxPoint x="416" y="439" as="targetPoint" />
          </mxGeometry>
        </mxCell>
        <mxCell id="RWuzewwSkAC1oUChftIm-9" value="false" style="edgeLabel;html=1;align=center;verticalAlign=middle;resizable=0;points=[];fontSize=16;" vertex="1" connectable="0" parent="RWuzewwSkAC1oUChftIm-8">
          <mxGeometry x="-0.1347" y="5" relative="1" as="geometry">
            <mxPoint as="offset" />
          </mxGeometry>
        </mxCell>
        <mxCell id="RWuzewwSkAC1oUChftIm-10" value="" style="edgeStyle=none;curved=1;rounded=0;orthogonalLoop=1;jettySize=auto;html=1;fontSize=12;startSize=8;endSize=8;" edge="1" parent="1" source="RWuzewwSkAC1oUChftIm-11" target="RWuzewwSkAC1oUChftIm-21">
          <mxGeometry relative="1" as="geometry" />
        </mxCell>
        <mxCell id="RWuzewwSkAC1oUChftIm-11" value="Output decimalNumber" style="shape=parallelogram;perimeter=parallelogramPerimeter;whiteSpace=wrap;html=1;fixedSize=1;fontSize=16;spacing=12;" vertex="1" parent="1">
          <mxGeometry x="617.5" y="443" width="145" height="60" as="geometry" />
        </mxCell>
        <mxCell id="RWuzewwSkAC1oUChftIm-12" value="" style="endArrow=classic;html=1;rounded=0;fontSize=12;startSize=8;endSize=8;curved=1;entryX=0.5;entryY=0;entryDx=0;entryDy=0;" edge="1" parent="1" target="RWuzewwSkAC1oUChftIm-11">
          <mxGeometry width="50" height="50" relative="1" as="geometry">
            <mxPoint x="413" y="440" as="sourcePoint" />
            <mxPoint x="484" y="325" as="targetPoint" />
          </mxGeometry>
        </mxCell>
        <mxCell id="RWuzewwSkAC1oUChftIm-13" value="" style="edgeStyle=none;curved=1;rounded=0;orthogonalLoop=1;jettySize=auto;html=1;fontSize=12;startSize=8;endSize=8;" edge="1" parent="1" source="RWuzewwSkAC1oUChftIm-14" target="RWuzewwSkAC1oUChftIm-16">
          <mxGeometry relative="1" as="geometry" />
        </mxCell>
        <mxCell id="RWuzewwSkAC1oUChftIm-14" value="decimalNumber = 0&lt;br&gt;power = 0" style="whiteSpace=wrap;html=1;fontSize=16;spacing=12;" vertex="1" parent="1">
          <mxGeometry x="83.5" y="214" width="185" height="60" as="geometry" />
        </mxCell>
        <mxCell id="RWuzewwSkAC1oUChftIm-15" value="" style="edgeStyle=none;curved=1;rounded=0;orthogonalLoop=1;jettySize=auto;html=1;fontSize=12;startSize=8;endSize=8;" edge="1" parent="1" source="RWuzewwSkAC1oUChftIm-16" target="RWuzewwSkAC1oUChftIm-7">
          <mxGeometry relative="1" as="geometry" />
        </mxCell>
        <mxCell id="RWuzewwSkAC1oUChftIm-16" value="i = binaryNumber.length()-1" style="rounded=0;whiteSpace=wrap;html=1;fontSize=16;" vertex="1" parent="1">
          <mxGeometry x="51" y="308" width="250" height="60" as="geometry" />
        </mxCell>
        <mxCell id="RWuzewwSkAC1oUChftIm-17" value="" style="edgeStyle=none;curved=1;rounded=0;orthogonalLoop=1;jettySize=auto;html=1;fontSize=12;startSize=8;endSize=8;entryX=1;entryY=1;entryDx=0;entryDy=0;" edge="1" parent="1" source="RWuzewwSkAC1oUChftIm-18" target="RWuzewwSkAC1oUChftIm-20">
          <mxGeometry relative="1" as="geometry" />
        </mxCell>
        <mxCell id="RWuzewwSkAC1oUChftIm-18" value="currentNumber&amp;nbsp; = Character.getNumericValue(binaryNumber.charAt(i))&lt;br&gt;baseTwoNumber =&amp;nbsp;currentNumber * (int) Math.pow(2, power)&lt;br&gt;decimalNumber += baseTwoNumber&lt;br&gt;power+=1&lt;br&gt;&lt;br&gt;// Get the number at position i, multiply it by 2 to a power and add it to the decimal number" style="whiteSpace=wrap;html=1;fontSize=16;spacing=12;" vertex="1" parent="1">
          <mxGeometry x="-182" y="612.5" width="726" height="141" as="geometry" />
        </mxCell>
        <mxCell id="RWuzewwSkAC1oUChftIm-19" value="" style="edgeStyle=none;curved=1;rounded=0;orthogonalLoop=1;jettySize=auto;html=1;fontSize=12;startSize=8;endSize=8;entryX=0;entryY=0.5;entryDx=0;entryDy=0;" edge="1" parent="1" source="RWuzewwSkAC1oUChftIm-20" target="RWuzewwSkAC1oUChftIm-7">
          <mxGeometry relative="1" as="geometry">
            <mxPoint x="-147" y="387" as="targetPoint" />
          </mxGeometry>
        </mxCell>
        <mxCell id="RWuzewwSkAC1oUChftIm-20" value="i--" style="whiteSpace=wrap;html=1;fontSize=16;spacing=12;" vertex="1" parent="1">
          <mxGeometry x="-273" y="453" width="120" height="60" as="geometry" />
        </mxCell>
        <mxCell id="RWuzewwSkAC1oUChftIm-21" value="Finish" style="rounded=1;whiteSpace=wrap;html=1;fontSize=16;arcSize=50;" vertex="1" parent="1">
          <mxGeometry x="630" y="565" width="120" height="60" as="geometry" />
        </mxCell>
        <mxCell id="RWuzewwSkAC1oUChftIm-23" value="" style="edgeStyle=none;curved=1;rounded=0;orthogonalLoop=1;jettySize=auto;html=1;fontSize=12;startSize=8;endSize=8;entryX=0.5;entryY=0;entryDx=0;entryDy=0;" edge="1" parent="1" source="RWuzewwSkAC1oUChftIm-24" target="RWuzewwSkAC1oUChftIm-26">
          <mxGeometry relative="1" as="geometry">
            <mxPoint x="1517" y="66" as="targetPoint" />
          </mxGeometry>
        </mxCell>
        <mxCell id="RWuzewwSkAC1oUChftIm-24" value="Begin" style="rounded=1;whiteSpace=wrap;html=1;fontSize=16;arcSize=50;" vertex="1" parent="1">
          <mxGeometry x="1457" y="-114" width="120" height="60" as="geometry" />
        </mxCell>
        <mxCell id="RWuzewwSkAC1oUChftIm-25" value="" style="edgeStyle=none;curved=1;rounded=0;orthogonalLoop=1;jettySize=auto;html=1;fontSize=12;startSize=8;endSize=8;" edge="1" parent="1" source="RWuzewwSkAC1oUChftIm-26" target="RWuzewwSkAC1oUChftIm-35">
          <mxGeometry relative="1" as="geometry" />
        </mxCell>
        <mxCell id="RWuzewwSkAC1oUChftIm-26" value="Obtain integer as String and set it to: hexString" style="shape=parallelogram;perimeter=parallelogramPerimeter;whiteSpace=wrap;html=1;fixedSize=1;fontSize=16;spacing=12;" vertex="1" parent="1">
          <mxGeometry x="1433.5" y="20" width="167" height="111" as="geometry" />
        </mxCell>
        <mxCell id="RWuzewwSkAC1oUChftIm-27" value="true" style="edgeStyle=none;curved=1;rounded=0;orthogonalLoop=1;jettySize=auto;html=1;fontSize=12;startSize=8;endSize=8;" edge="1" parent="1" source="RWuzewwSkAC1oUChftIm-28" target="RWuzewwSkAC1oUChftIm-39">
          <mxGeometry relative="1" as="geometry" />
        </mxCell>
        <mxCell id="RWuzewwSkAC1oUChftIm-28" value="i &amp;gt;= 0" style="whiteSpace=wrap;html=1;fontSize=16;spacing=12;" vertex="1" parent="1">
          <mxGeometry x="1455" y="368" width="134" height="70" as="geometry" />
        </mxCell>
        <mxCell id="RWuzewwSkAC1oUChftIm-29" value="" style="endArrow=classic;html=1;rounded=0;fontSize=12;startSize=8;endSize=8;curved=1;exitX=1;exitY=0.5;exitDx=0;exitDy=0;" edge="1" parent="1" source="RWuzewwSkAC1oUChftIm-28">
          <mxGeometry width="50" height="50" relative="1" as="geometry">
            <mxPoint x="1489" y="260" as="sourcePoint" />
            <mxPoint x="1757" y="405" as="targetPoint" />
          </mxGeometry>
        </mxCell>
        <mxCell id="RWuzewwSkAC1oUChftIm-30" value="false" style="edgeLabel;html=1;align=center;verticalAlign=middle;resizable=0;points=[];fontSize=16;" vertex="1" connectable="0" parent="RWuzewwSkAC1oUChftIm-29">
          <mxGeometry x="-0.1347" y="5" relative="1" as="geometry">
            <mxPoint as="offset" />
          </mxGeometry>
        </mxCell>
        <mxCell id="RWuzewwSkAC1oUChftIm-31" value="" style="edgeStyle=none;curved=1;rounded=0;orthogonalLoop=1;jettySize=auto;html=1;fontSize=12;startSize=8;endSize=8;" edge="1" parent="1" source="RWuzewwSkAC1oUChftIm-32" target="RWuzewwSkAC1oUChftIm-42">
          <mxGeometry relative="1" as="geometry" />
        </mxCell>
        <mxCell id="RWuzewwSkAC1oUChftIm-32" value="Output decimalNumber" style="shape=parallelogram;perimeter=parallelogramPerimeter;whiteSpace=wrap;html=1;fixedSize=1;fontSize=16;spacing=12;" vertex="1" parent="1">
          <mxGeometry x="1958.5" y="409" width="145" height="60" as="geometry" />
        </mxCell>
        <mxCell id="RWuzewwSkAC1oUChftIm-33" value="" style="endArrow=classic;html=1;rounded=0;fontSize=12;startSize=8;endSize=8;curved=1;entryX=0.5;entryY=0;entryDx=0;entryDy=0;" edge="1" parent="1" target="RWuzewwSkAC1oUChftIm-32">
          <mxGeometry width="50" height="50" relative="1" as="geometry">
            <mxPoint x="1754" y="406" as="sourcePoint" />
            <mxPoint x="1825" y="291" as="targetPoint" />
          </mxGeometry>
        </mxCell>
        <mxCell id="RWuzewwSkAC1oUChftIm-34" value="" style="edgeStyle=none;curved=1;rounded=0;orthogonalLoop=1;jettySize=auto;html=1;fontSize=12;startSize=8;endSize=8;" edge="1" parent="1" source="RWuzewwSkAC1oUChftIm-35" target="RWuzewwSkAC1oUChftIm-37">
          <mxGeometry relative="1" as="geometry" />
        </mxCell>
        <mxCell id="RWuzewwSkAC1oUChftIm-35" value="decimalNumber = 0&lt;br&gt;power = 0" style="whiteSpace=wrap;html=1;fontSize=16;spacing=12;" vertex="1" parent="1">
          <mxGeometry x="1424.5" y="180" width="185" height="60" as="geometry" />
        </mxCell>
        <mxCell id="RWuzewwSkAC1oUChftIm-36" value="" style="edgeStyle=none;curved=1;rounded=0;orthogonalLoop=1;jettySize=auto;html=1;fontSize=12;startSize=8;endSize=8;" edge="1" parent="1" source="RWuzewwSkAC1oUChftIm-37" target="RWuzewwSkAC1oUChftIm-28">
          <mxGeometry relative="1" as="geometry" />
        </mxCell>
        <mxCell id="RWuzewwSkAC1oUChftIm-37" value="i = hexString.length()-1" style="rounded=0;whiteSpace=wrap;html=1;fontSize=16;" vertex="1" parent="1">
          <mxGeometry x="1392" y="274" width="250" height="60" as="geometry" />
        </mxCell>
        <mxCell id="RWuzewwSkAC1oUChftIm-44" value="" style="edgeStyle=none;curved=1;rounded=0;orthogonalLoop=1;jettySize=auto;html=1;fontSize=12;startSize=8;endSize=8;" edge="1" parent="1" source="RWuzewwSkAC1oUChftIm-39" target="RWuzewwSkAC1oUChftIm-43">
          <mxGeometry relative="1" as="geometry" />
        </mxCell>
        <mxCell id="RWuzewwSkAC1oUChftIm-39" value="currentNumber&amp;nbsp; = Character.getNumericValue(hexString.charAt(i)&lt;br&gt;&lt;br&gt;// Get the number at position i, multiply it by 16 to a power and add it to the decimal number" style="whiteSpace=wrap;html=1;fontSize=16;spacing=12;" vertex="1" parent="1">
          <mxGeometry x="1253.25" y="587" width="537.5" height="94.5" as="geometry" />
        </mxCell>
        <mxCell id="RWuzewwSkAC1oUChftIm-40" value="" style="edgeStyle=none;curved=1;rounded=0;orthogonalLoop=1;jettySize=auto;html=1;fontSize=12;startSize=8;endSize=8;entryX=0;entryY=0.5;entryDx=0;entryDy=0;" edge="1" parent="1" source="RWuzewwSkAC1oUChftIm-41" target="RWuzewwSkAC1oUChftIm-28">
          <mxGeometry relative="1" as="geometry">
            <mxPoint x="1194" y="353" as="targetPoint" />
          </mxGeometry>
        </mxCell>
        <mxCell id="RWuzewwSkAC1oUChftIm-41" value="i--" style="whiteSpace=wrap;html=1;fontSize=16;spacing=12;" vertex="1" parent="1">
          <mxGeometry x="1068" y="419" width="120" height="60" as="geometry" />
        </mxCell>
        <mxCell id="RWuzewwSkAC1oUChftIm-42" value="Finish" style="rounded=1;whiteSpace=wrap;html=1;fontSize=16;arcSize=50;" vertex="1" parent="1">
          <mxGeometry x="1971" y="531" width="120" height="60" as="geometry" />
        </mxCell>
        <mxCell id="RWuzewwSkAC1oUChftIm-46" value="" style="edgeStyle=none;curved=1;rounded=0;orthogonalLoop=1;jettySize=auto;html=1;fontSize=12;startSize=8;endSize=8;" edge="1" parent="1" source="RWuzewwSkAC1oUChftIm-43" target="RWuzewwSkAC1oUChftIm-45">
          <mxGeometry relative="1" as="geometry" />
        </mxCell>
        <mxCell id="RWuzewwSkAC1oUChftIm-43" value="letterPosition = new String(HEX_LETTERS).indexOf(currentNum)&lt;br&gt;// Check if the current character is a letter" style="whiteSpace=wrap;html=1;fontSize=16;spacing=12;" vertex="1" parent="1">
          <mxGeometry x="1276.5" y="838" width="491" height="69.5" as="geometry" />
        </mxCell>
        <mxCell id="RWuzewwSkAC1oUChftIm-50" value="false" style="edgeStyle=none;curved=1;rounded=0;orthogonalLoop=1;jettySize=auto;html=1;fontSize=12;startSize=8;endSize=8;" edge="1" parent="1" source="RWuzewwSkAC1oUChftIm-45" target="RWuzewwSkAC1oUChftIm-49">
          <mxGeometry relative="1" as="geometry" />
        </mxCell>
        <mxCell id="RWuzewwSkAC1oUChftIm-45" value="if letterPosition &amp;gt;= 0" style="rhombus;whiteSpace=wrap;html=1;fontSize=16;spacing=12;" vertex="1" parent="1">
          <mxGeometry x="1437" y="984" width="185" height="80" as="geometry" />
        </mxCell>
        <mxCell id="RWuzewwSkAC1oUChftIm-52" value="" style="edgeStyle=none;curved=1;rounded=0;orthogonalLoop=1;jettySize=auto;html=1;fontSize=12;startSize=8;endSize=8;" edge="1" parent="1" source="RWuzewwSkAC1oUChftIm-47" target="RWuzewwSkAC1oUChftIm-49">
          <mxGeometry relative="1" as="geometry" />
        </mxCell>
        <mxCell id="RWuzewwSkAC1oUChftIm-47" value="&lt;div&gt;&lt;span style=&quot;background-color: initial;&quot;&gt;currentNum =&amp;nbsp; (int) HEX_NUMBERS[letterPosition]&lt;/span&gt;&lt;br&gt;&lt;/div&gt;&lt;div&gt;// Set the current number to the number value of the letter&lt;/div&gt;" style="whiteSpace=wrap;html=1;fontSize=16;spacing=12;" vertex="1" parent="1">
          <mxGeometry x="1625" y="1159" width="407" height="60" as="geometry" />
        </mxCell>
        <mxCell id="RWuzewwSkAC1oUChftIm-48" value="true" style="endArrow=classic;html=1;rounded=0;fontSize=12;startSize=8;endSize=8;curved=1;exitX=1;exitY=1;exitDx=0;exitDy=0;entryX=0.5;entryY=0;entryDx=0;entryDy=0;" edge="1" parent="1" source="RWuzewwSkAC1oUChftIm-45" target="RWuzewwSkAC1oUChftIm-47">
          <mxGeometry width="50" height="50" relative="1" as="geometry">
            <mxPoint x="1252" y="990" as="sourcePoint" />
            <mxPoint x="1302" y="940" as="targetPoint" />
          </mxGeometry>
        </mxCell>
        <mxCell id="RWuzewwSkAC1oUChftIm-49" value="&lt;div&gt;int baseSixteenNum = currentNum * (int) Math.pow(16, power)&lt;/div&gt;&lt;div&gt;&lt;span style=&quot;background-color: initial;&quot;&gt;decimalNumber += baseSixteenNum&lt;/span&gt;&lt;/div&gt;&lt;div&gt;&lt;span style=&quot;background-color: initial;&quot;&gt;power+=1&lt;/span&gt;&lt;/div&gt;&lt;div&gt;&lt;span style=&quot;background-color: initial;&quot;&gt;// Multiply the current number by 16 to a power, add it to the decimal number and increase the power by 1&lt;/span&gt;&lt;/div&gt;" style="whiteSpace=wrap;html=1;fontSize=16;spacing=12;" vertex="1" parent="1">
          <mxGeometry x="1040" y="1131" width="495" height="116" as="geometry" />
        </mxCell>
        <mxCell id="RWuzewwSkAC1oUChftIm-51" value="" style="endArrow=classic;html=1;rounded=0;fontSize=12;startSize=8;endSize=8;curved=1;entryX=0.5;entryY=1;entryDx=0;entryDy=0;" edge="1" parent="1" source="RWuzewwSkAC1oUChftIm-49" target="RWuzewwSkAC1oUChftIm-41">
          <mxGeometry width="50" height="50" relative="1" as="geometry">
            <mxPoint x="1109" y="1076" as="sourcePoint" />
            <mxPoint x="1159" y="1026" as="targetPoint" />
          </mxGeometry>
        </mxCell>
      </root>
    </mxGraphModel>
  </diagram>
</mxfile>
